<svg xmlns="http://www.w3.org/2000/svg" width="200" height="175" fill="none"><g filter="url(#a)"><mask id="c" fill="#fff"><rect width="56" height="56" x="100.695" y="82.919" rx="7"/></mask><rect width="56" height="56" x="100.695" y="82.919" stroke="url(#b)" stroke-opacity=".6" stroke-width="56" mask="url(#c)" rx="7"/></g><g filter="url(#d)"><rect width="56" height="56" x="101.695" y="81.919" stroke="url(#e)" stroke-opacity=".6" stroke-width="2" rx="6"/></g><path fill="url(#f)" d="m27.04 120.325-1.56-2.423c0 5.122-.78 9.51 2.732 11.556 19.773 11.515 61.816 36.65 71.806 41.732 9.991 5.083 18.993 2.647 22.245.794 21.464-11.158 61.251-35.419 72.198-42.17 6.244-3.85 5.073-3.613 5.073-11.117-18.732-11.251-84.633 49.218-92.491 40.938-10.927-11.516-76.75-40.898-80.002-39.31Z"/><path fill="url(#g)" fill-opacity=".2" d="m27.04 120.325-1.56-2.423c0 5.122-.78 9.51 2.732 11.556 19.773 11.515 61.816 36.65 71.806 41.732 9.991 5.083 18.993 2.647 22.245.794 21.464-11.158 61.251-35.419 72.198-42.17 6.244-3.85 5.073-3.613 5.073-11.117-18.732-11.251-84.633 49.218-92.491 40.938-10.927-11.516-76.75-40.898-80.002-39.31Z"/><path fill="url(#h)" fill-opacity=".2" d="m27.04 120.325-1.56-2.423c0 5.122-.78 9.51 2.732 11.556 19.773 11.515 61.816 36.65 71.806 41.732 9.991 5.083 18.993 2.647 22.245.794 21.464-11.158 61.251-35.419 72.198-42.17 6.244-3.85 5.073-3.613 5.073-11.117-18.732-11.251-84.633 49.218-92.491 40.938-10.927-11.516-76.75-40.898-80.002-39.31Z"/><path fill="#E7EAF0" d="m103.921 69.5-73.368 41.692c-8.195 5.162-5.073 13.947 2.342 18.265 19.773 11.515 57.133 33.434 67.124 38.516 9.99 5.083 18.992 2.647 22.244.794 19.513-11.25 61.114-35.339 71.417-41.692 10.303-6.353 5.073-12.706 1.171-15.089-18.733-11.25-58.695-35.1-68.685-40.5-9.991-5.4-18.993-3.574-22.245-1.986Z"/><g filter="url(#i)"><g filter="url(#j)"><path fill="url(#k)" fill-rule="evenodd" d="M81.386 112.842c-3.783.793-4.608 3.625-1.842 6.326l12.038 11.752c2.766 2.701 8.076 4.247 11.86 3.455l33.908-7.104c3.784-.793 4.608-3.625 1.842-6.326l-12.037-11.752c-2.767-2.7-8.077-4.247-11.86-3.454l-33.909 7.103Zm8.3 2.48c-2.162.453-2.633 2.071-1.052 3.614l9.216 8.998c1.58 1.543 4.615 2.427 6.777 1.974l24.423-5.117c2.162-.453 2.633-2.071 1.052-3.614l-9.216-8.998c-1.581-1.543-4.615-2.427-6.777-1.974l-24.422 5.117Z" clip-rule="evenodd"/></g><g filter="url(#l)"><path fill="red" fill-rule="evenodd" d="m132.302 97.53-14.338 30.211-30.067-8.754 5.776-4.088 17.054 4.965 11.091-23.37 10.484 1.036Z" clip-rule="evenodd"/></g><g filter="url(#m)"><path stroke="#fff" stroke-width="3" d="m112.02 122.6 1.622.461.399-.816 11.176-22.864 3.905.434-12.692 26.514-22.37-6.653 2.226-1.543 15.734 4.467Z"/></g><g filter="url(#n)"><path stroke="#fff" stroke-width="2" d="m112.106 122.279 1.081.307.266-.544 11.273-23.063 5.204.579-13.045 27.254-23.825-7.086 2.923-2.025 16.123 4.578Z"/></g></g><g filter="url(#o)"><path fill="url(#p)" fill-rule="evenodd" d="M68.36 50.832a7 7 0 0 0-4.525 8.805l20.37 63.456a7 7 0 0 0 8.804 4.525l63.456-20.369a6.999 6.999 0 0 0 4.525-8.804l-20.369-63.456a7 7 0 0 0-8.805-4.526L68.36 50.833Zm13.504 9.327a4 4 0 0 0-2.586 5.03l14.252 44.4a4 4 0 0 0 5.031 2.586l44.399-14.252a3.999 3.999 0 0 0 2.586-5.031l-14.252-44.4a4 4 0 0 0-5.031-2.585L81.864 60.159Z" clip-rule="evenodd"/></g><g filter="url(#q)"><mask id="s" fill="#fff"><rect width="72.841" height="72.841" x="63.541" y="54.264" rx="7" transform="rotate(-15.674 63.541 54.264)"/></mask><rect width="72.841" height="72.841" x="63.541" y="54.264" stroke="url(#r)" stroke-opacity=".6" stroke-width="62" mask="url(#s)" rx="7" transform="rotate(-15.674 63.541 54.264)"/></g><g filter="url(#t)"><rect width="73.442" height="73.442" x="64.393" y="53.603" stroke="url(#u)" stroke-opacity=".6" stroke-width="2" rx="6" transform="rotate(-15.674 64.393 53.603)"/></g><g filter="url(#v)"><path fill="red" fill-rule="evenodd" d="m154.188 9.49-34.486 99.181-42.205-35.2 10.518-12.699 23.938 19.966L138.63 4.017l15.558 5.472Z" clip-rule="evenodd"/></g><g filter="url(#w)"><path stroke="#fff" stroke-opacity=".6" stroke-width="2" d="m114.519 87.34 26.946-75.99 9.674 3.687-32.175 92.015-35.585-30.273 6.552-7.754 23.014 18.756 1.1.896.474-1.337Z"/></g><g filter="url(#x)"><path stroke="#fff" stroke-opacity=".6" stroke-width="3" d="M114.99 87.507 141.765 12l8.741 3.332-31.774 90.867-34.649-29.478 5.913-6.998 22.633 18.445 1.65 1.345.711-2.006Z"/></g><defs><filter id="a" width="72" height="72" x="92.695" y="74.919" color-interpolation-filters="sRGB" filterUnits="userSpaceOnUse"><feFlood flood-opacity="0" result="BackgroundImageFix"/><feBlend in="SourceGraphic" in2="BackgroundImageFix" result="shape"/><feGaussianBlur result="effect1_foregroundBlur_789_19169" stdDeviation="4"/></filter><filter id="d" width="64" height="64" x="97.695" y="77.919" color-interpolation-filters="sRGB" filterUnits="userSpaceOnUse"><feFlood flood-opacity="0" result="BackgroundImageFix"/><feBlend in="SourceGraphic" in2="BackgroundImageFix" result="shape"/><feGaussianBlur result="effect1_foregroundBlur_789_19169" stdDeviation="1.5"/></filter><filter id="i" width="94.92" height="70.087" x="61.908" y="80.495" color-interpolation-filters="sRGB" filterUnits="userSpaceOnUse"><feFlood flood-opacity="0" result="BackgroundImageFix"/><feBlend in="SourceGraphic" in2="BackgroundImageFix" result="shape"/><feGaussianBlur result="effect1_foregroundBlur_789_19169" stdDeviation="8"/></filter><filter id="j" width="68.92" height="36.051" x="77.908" y="102.531" color-interpolation-filters="sRGB" filterUnits="userSpaceOnUse"><feFlood flood-opacity="0" result="BackgroundImageFix"/><feBlend in="SourceGraphic" in2="BackgroundImageFix" result="shape"/><feColorMatrix in="SourceAlpha" result="hardAlpha" values="0 0 0 0 0 0 0 0 0 0 0 0 0 0 0 0 0 0 127 0"/><feOffset dx="4" dy="-3"/><feGaussianBlur stdDeviation="2.5"/><feComposite in2="hardAlpha" k2="-1" k3="1" operator="arithmetic"/><feColorMatrix values="0 0 0 0 1 0 0 0 0 1 0 0 0 0 1 0 0 0 0.45 0"/><feBlend in2="shape" result="effect1_innerShadow_789_19169"/><feColorMatrix in="SourceAlpha" result="hardAlpha" values="0 0 0 0 0 0 0 0 0 0 0 0 0 0 0 0 0 0 127 0"/><feOffset dx="8" dy="4"/><feGaussianBlur stdDeviation="3"/><feComposite in2="hardAlpha" k2="-1" k3="1" operator="arithmetic"/><feColorMatrix values="0 0 0 0 0 0 0 0 0 0 0 0 0 0 0 0 0 0 0.2 0"/><feBlend in2="effect1_innerShadow_789_19169" result="effect2_innerShadow_789_19169"/></filter><filter id="l" width="44.402" height="39.246" x="87.898" y="91.495" color-interpolation-filters="sRGB" filterUnits="userSpaceOnUse"><feFlood flood-opacity="0" result="BackgroundImageFix"/><feBlend in="SourceGraphic" in2="BackgroundImageFix" result="shape"/><feColorMatrix in="SourceAlpha" result="hardAlpha" values="0 0 0 0 0 0 0 0 0 0 0 0 0 0 0 0 0 0 127 0"/><feOffset dy="-6"/><feGaussianBlur stdDeviation="2.5"/><feComposite in2="hardAlpha" k2="-1" k3="1" operator="arithmetic"/><feColorMatrix values="0 0 0 0 1 0 0 0 0 1 0 0 0 0 1 0 0 0 0.45 0"/><feBlend in2="shape" result="effect1_innerShadow_789_19169"/><feColorMatrix in="SourceAlpha" result="hardAlpha" values="0 0 0 0 0 0 0 0 0 0 0 0 0 0 0 0 0 0 127 0"/><feOffset dy="5"/><feGaussianBlur stdDeviation="1.5"/><feComposite in2="hardAlpha" k2="-1" k3="1" operator="arithmetic"/><feColorMatrix values="0 0 0 0 0 0 0 0 0 0 0 0 0 0 0 0 0 0 0.2 0"/><feBlend in2="effect1_innerShadow_789_19169" result="effect2_innerShadow_789_19169"/></filter><filter id="m" width="60.486" height="49.6" x="81.061" y="88.176" color-interpolation-filters="sRGB" filterUnits="userSpaceOnUse"><feFlood flood-opacity="0" result="BackgroundImageFix"/><feBlend in="SourceGraphic" in2="BackgroundImageFix" result="shape"/><feGaussianBlur result="effect1_foregroundBlur_789_19169" stdDeviation="5"/></filter><filter id="n" width="56.486" height="45.6" x="83.061" y="90.176" color-interpolation-filters="sRGB" filterUnits="userSpaceOnUse"><feFlood flood-opacity="0" result="BackgroundImageFix"/><feBlend in="SourceGraphic" in2="BackgroundImageFix" result="shape"/><feGaussianBlur result="effect1_foregroundBlur_789_19169" stdDeviation="4"/></filter><filter id="o" width="103.828" height="104.829" x="63.498" y="27.126" color-interpolation-filters="sRGB" filterUnits="userSpaceOnUse"><feFlood flood-opacity="0" result="BackgroundImageFix"/><feBlend in="SourceGraphic" in2="BackgroundImageFix" result="shape"/><feColorMatrix in="SourceAlpha" result="hardAlpha" values="0 0 0 0 0 0 0 0 0 0 0 0 0 0 0 0 0 0 127 0"/><feOffset dx="4" dy="-3"/><feGaussianBlur stdDeviation="2.5"/><feComposite in2="hardAlpha" k2="-1" k3="1" operator="arithmetic"/><feColorMatrix values="0 0 0 0 1 0 0 0 0 1 0 0 0 0 1 0 0 0 0.45 0"/><feBlend in2="shape" result="effect1_innerShadow_789_19169"/><feColorMatrix in="SourceAlpha" result="hardAlpha" values="0 0 0 0 0 0 0 0 0 0 0 0 0 0 0 0 0 0 127 0"/><feOffset dx="8" dy="4"/><feGaussianBlur stdDeviation="3"/><feComposite in2="hardAlpha" k2="-1" k3="1" operator="arithmetic"/><feColorMatrix values="0 0 0 0 0 0 0 0 0 0 0 0 0 0 0 0 0 0 0.2 0"/><feBlend in2="effect1_innerShadow_789_19169" result="effect2_innerShadow_789_19169"/></filter><filter id="q" width="102.553" height="102.553" x="57.17" y="28.214" color-interpolation-filters="sRGB" filterUnits="userSpaceOnUse"><feFlood flood-opacity="0" result="BackgroundImageFix"/><feBlend in="SourceGraphic" in2="BackgroundImageFix" result="shape"/><feGaussianBlur result="effect1_foregroundBlur_789_19169" stdDeviation="4"/></filter><filter id="t" width="95.76" height="95.76" x="61.789" y="31.158" color-interpolation-filters="sRGB" filterUnits="userSpaceOnUse"><feFlood flood-opacity="0" result="BackgroundImageFix"/><feBlend in="SourceGraphic" in2="BackgroundImageFix" result="shape"/><feGaussianBlur result="effect1_foregroundBlur_789_19169" stdDeviation="1.5"/></filter><filter id="v" width="76.689" height="112.655" x="77.498" y="-.983" color-interpolation-filters="sRGB" filterUnits="userSpaceOnUse"><feFlood flood-opacity="0" result="BackgroundImageFix"/><feBlend in="SourceGraphic" in2="BackgroundImageFix" result="shape"/><feColorMatrix in="SourceAlpha" result="hardAlpha" values="0 0 0 0 0 0 0 0 0 0 0 0 0 0 0 0 0 0 127 0"/><feOffset dy="-6"/><feGaussianBlur stdDeviation="2.5"/><feComposite in2="hardAlpha" k2="-1" k3="1" operator="arithmetic"/><feColorMatrix values="0 0 0 0 1 0 0 0 0 1 0 0 0 0 1 0 0 0 0.45 0"/><feBlend in2="shape" result="effect1_innerShadow_789_19169"/><feColorMatrix in="SourceAlpha" result="hardAlpha" values="0 0 0 0 0 0 0 0 0 0 0 0 0 0 0 0 0 0 127 0"/><feOffset dy="5"/><feGaussianBlur stdDeviation="1.5"/><feComposite in2="hardAlpha" k2="-1" k3="1" operator="arithmetic"/><feColorMatrix values="0 0 0 0 0 0 0 0 0 0 0 0 0 0 0 0 0 0 0.2 0"/><feBlend in2="effect1_innerShadow_789_19169" result="effect2_innerShadow_789_19169"/></filter><filter id="w" width="86.432" height="114.708" x="73.973" y="2.051" color-interpolation-filters="sRGB" filterUnits="userSpaceOnUse"><feFlood flood-opacity="0" result="BackgroundImageFix"/><feBlend in="SourceGraphic" in2="BackgroundImageFix" result="shape"/><feGaussianBlur result="effect1_foregroundBlur_789_19169" stdDeviation="4"/></filter><filter id="x" width="90.432" height="118.708" x="71.973" y=".051" color-interpolation-filters="sRGB" filterUnits="userSpaceOnUse"><feFlood flood-opacity="0" result="BackgroundImageFix"/><feBlend in="SourceGraphic" in2="BackgroundImageFix" result="shape"/><feGaussianBlur result="effect1_foregroundBlur_789_19169" stdDeviation="5"/></filter><linearGradient id="b" x1="155.746" x2="125.191" y1="77.126" y2="117.177" gradientUnits="userSpaceOnUse"><stop stop-color="#fff"/><stop offset="1" stop-color="#fff" stop-opacity="0"/></linearGradient><linearGradient id="e" x1="157.712" x2="126.065" y1="74.919" y2="116.4" gradientUnits="userSpaceOnUse"><stop stop-color="#fff"/><stop offset="1" stop-color="#fff" stop-opacity="0"/></linearGradient><linearGradient id="k" x1="89.139" x2="127.4" y1="104.733" y2="140.358" gradientUnits="userSpaceOnUse"><stop stop-color="#2871E4"/><stop offset="1" stop-color="#677CE5"/></linearGradient><linearGradient id="p" x1="87.957" x2="175.677" y1="23.537" y2="73.967" gradientUnits="userSpaceOnUse"><stop stop-color="#2871E4"/><stop offset="1" stop-color="#677CE5"/></linearGradient><linearGradient id="r" x1="135.147" x2="95.403" y1="46.729" y2="98.823" gradientUnits="userSpaceOnUse"><stop stop-color="#fff"/><stop offset="1" stop-color="#fff" stop-opacity="0"/></linearGradient><linearGradient id="u" x1="137.324" x2="96.16" y1="45.106" y2="99.061" gradientUnits="userSpaceOnUse"><stop stop-color="#fff"/><stop offset="1" stop-color="#fff" stop-opacity="0"/></linearGradient><radialGradient id="f" cx="0" cy="0" r="1" gradientTransform="matrix(11.69722 9.94263 -11.36745 13.37349 25.406 121.679)" gradientUnits="userSpaceOnUse"><stop stop-color="#8F8F8F"/><stop offset="1" stop-color="#D8D8D8"/></radialGradient><radialGradient id="g" cx="0" cy="0" r="1" gradientTransform="matrix(-40.3555 22.80974 -18.10378 -32.02963 196.186 126.943)" gradientUnits="userSpaceOnUse"><stop/><stop offset="1" stop-color="#AFAFAF"/></radialGradient><radialGradient id="h" cx="0" cy="0" r="1" gradientTransform="matrix(62.44077 -34.14808 18.48471 33.79984 119.532 169.522)" gradientUnits="userSpaceOnUse"><stop/><stop offset="1" stop-opacity="0"/></radialGradient></defs></svg>